<?xml version="1.0" encoding="utf-8"?>
<!-- Svg Vector Icons : http://www.onlinewebfonts.com/icon -->
<!DOCTYPE svg PUBLIC "-//W3C//DTD SVG 1.1//EN" "http://www.w3.org/Graphics/SVG/1.1/DTD/svg11.dtd">
<svg version="1.1" xmlns="http://www.w3.org/2000/svg" xmlns:xlink="http://www.w3.org/1999/xlink" x="0px" y="0px" viewBox="0 0 1000 1000" enable-background="new 0 0 1000 1000" xml:space="preserve">
<metadata> Svg Vector Icons : http://www.onlinewebfonts.com/icon </metadata>
<g><g id="c2be471c56fc5b4dd571614bb3052f50"><path fill="#fff" d="M824.5,201.7c0,0-0.8-4.4-3.3-6c-2.5-1.6-5.2-1.9-5.2-1.9l-78.8-5.9l-58-57.6c-2.2-1.7-4.7-2.7-7.3-3.2c-6.2-1.2-14.5,0.2-16,0.6l-30.1,9.3c-13.1-38.6-30.9-66-53.3-81.9c-16.6-11.7-34.8-16.7-54.4-15.2c-4.1-5.5-8.7-10.3-13.6-14.3C482.8,8,454.7,5.3,421.2,17.4C320.6,54,277.9,184.4,262.5,249.5l-87.7,27.2c0,0-20.6,5.9-25.5,11.7c-5.3,6.4-6.3,23.6-6.3,23.6L68.6,885.5L628.9,990l302.5-65.5L824.5,201.7z M514,171.6l-96.9,30c12.8-50.3,37.5-101.6,84.7-121.7C511.6,105.6,514.3,140.7,514,171.6z M432.7,49.1c20.5-7.4,36.2-7.1,48.1,0.9C417.5,78.8,389.9,151.5,378,213.7l-77.6,24C317.8,175.1,356.4,76.8,432.7,49.1z M487,471.8c-4.4-2.2-9.7-4.5-15.6-6.6c-5.9-2.2-12.4-4.3-19.5-6c-7-1.7-14.6-3.1-22.5-3.9c-7.9-0.8-16.2-1.1-24.8-0.6c-7.9,0.5-15,1.9-21.3,4.1c-6.2,2.2-11.7,5.3-16.1,9.1c-4.4,3.8-8,8.3-10.4,13.5c-2.5,5.2-3.9,11-4.2,17.5c-0.2,4.8,0.5,9.4,2.2,13.9c1.7,4.5,4.3,8.9,7.9,13.3c3.6,4.4,8.2,8.8,13.7,13.2c5.6,4.5,12.2,9.1,19.8,13.8c10.7,6.8,21.6,14.5,32,23.4c10.5,9,20.5,19.1,29,30.6c8.7,11.7,15.9,24.7,20.7,39.4c4.9,14.8,7.4,31.1,6.6,49c-1.3,29.4-7.7,54.7-18.4,75.7c-10.5,20.7-25,37-42.5,48.8c-17.1,11.5-36.9,18.7-58.4,21.6c-20.9,2.8-43.3,1.6-66.4-3.5c-0.2,0-0.4-0.1-0.6-0.1c-0.2,0-0.4-0.1-0.5-0.1c-0.2,0-0.4-0.1-0.6-0.1c-0.2,0-0.4-0.1-0.6-0.1c-10.8-2.6-21.3-6-31.1-10c-9.7-3.9-18.8-8.3-27-13.2c-8.2-4.8-15.6-9.9-22-15.1c-6.3-5.2-11.7-10.6-15.9-16.1l25.5-84.6c4.3,3.6,9.6,7.8,15.6,12c6.1,4.3,12.9,8.6,20.1,12.7c7.4,4.1,15.2,7.9,23.3,11c8.2,3.1,16.7,5.6,25,6.8c7.4,1.1,14,0.9,19.8-0.4c5.8-1.3,10.8-3.7,14.9-7.1c4.1-3.3,7.3-7.5,9.5-12.3c2.2-4.9,3.5-10.3,3.7-16.1c0.3-5.8-0.3-11.3-1.7-16.6c-1.5-5.3-3.9-10.5-7.3-15.6c-3.4-5.1-7.9-10.3-13.5-15.6c-5.6-5.3-12.3-10.7-20.2-16.5c-9.8-7.3-18.9-15.1-27.1-23.7c-8.1-8.5-15.3-17.6-21.1-27.6c-5.8-9.9-10.4-20.5-13.4-32.1c-3-11.5-4.3-24-3.7-37.6c1-22.7,5.5-43.6,13.1-62.5c7.7-19,18.6-36.1,32.2-50.8c13.9-15,30.8-27.7,50.3-37.4c20.1-10,43-17.1,68.4-20.4c11.8-1.6,23.1-2.3,33.8-2.3c10.9,0,21.1,0.6,30.5,1.8c9.5,1.2,18.2,3,25.9,5.2c7.8,2.2,14.5,4.8,20,7.6L487,471.8z M547.6,161.2c0-3.8-0.1-7.7-0.3-11.6c-1.1-30.1-5.2-55.5-12.2-76.1c7.6,0.8,14.5,3.3,20.8,7.7c17.5,12.4,30.2,37.4,39.1,65.3L547.6,161.2z"/></g></g>
</svg>